<svg xmlns="http://www.w3.org/2000/svg" viewBox="0 0 832 272" width="832" height="272" fill="none" role="img" aria-label="activity — always building">
  <title>activity — always building</title>
  <defs>
    <linearGradient id="abg" x1="0" y1="0" x2="1" y2="1"><stop offset="0" stop-color="#0d0d20"/><stop offset="1" stop-color="#100a1c"/></linearGradient>
    <linearGradient id="aedge" x1="0" y1="0" x2="1" y2="0"><stop offset="0" stop-color="#39ff14"/><stop offset="1" stop-color="#00f0ff"/></linearGradient>
    <clipPath id="aw"><rect x="6" y="6" width="820" height="260" rx="16"/></clipPath>
    <style>
      text{ font-family:'JetBrains Mono','SFMono-Regular',Consolas,monospace }
      .q{ animation:rp 3.2s ease-in-out infinite }
      @keyframes rp{ 0%,100%{opacity:.55} 50%{opacity:1} }
      @media (prefers-reduced-motion:reduce){ .q{animation:none;opacity:1} }
    </style>
  </defs>
  <g clip-path="url(#aw)">
    <rect x="6" y="6" width="820" height="260" rx="16" fill="url(#abg)"/>
    <circle cx="30" cy="34" r="5" fill="#39ff14"/>
    <text x="46" y="39" font-size="12" letter-spacing="3" fill="#39ff14">ACTIVITY</text>
    <text x="808" y="39" text-anchor="end" font-size="11" fill="#7f7fb0">something's always building</text>
    <rect x="30" y="66" width="18" height="18" rx="4" fill="#1c6b2e" class="q" style="animation-delay:0.00s"/>
    <rect x="30" y="92" width="18" height="18" rx="4" fill="#27bf40" class="q" style="animation-delay:0.04s"/>
    <rect x="30" y="118" width="18" height="18" rx="4" fill="#27bf40" class="q" style="animation-delay:0.08s"/>
    <rect x="30" y="144" width="18" height="18" rx="4" fill="#1c6b2e" class="q" style="animation-delay:0.12s"/>
    <rect x="30" y="170" width="18" height="18" rx="4" fill="#1c6b2e" class="q" style="animation-delay:0.16s"/>
    <rect x="30" y="196" width="18" height="18" rx="4" fill="#12351f" class="q" style="animation-delay:0.20s"/>
    <rect x="30" y="222" width="18" height="18" rx="4" fill="#12351f" class="q" style="animation-delay:0.24s"/>
    <rect x="56" y="66" width="18" height="18" rx="4" fill="#27bf40" class="q" style="animation-delay:0.05s"/>
    <rect x="56" y="92" width="18" height="18" rx="4" fill="#27bf40" class="q" style="animation-delay:0.09s"/>
    <rect x="56" y="118" width="18" height="18" rx="4" fill="#27bf40" class="q" style="animation-delay:0.13s"/>
    <rect x="56" y="144" width="18" height="18" rx="4" fill="#27bf40" class="q" style="animation-delay:0.17s"/>
    <rect x="56" y="170" width="18" height="18" rx="4" fill="#1c6b2e" class="q" style="animation-delay:0.21s"/>
    <rect x="56" y="196" width="18" height="18" rx="4" fill="#1c6b2e" class="q" style="animation-delay:0.25s"/>
    <rect x="56" y="222" width="18" height="18" rx="4" fill="#1c6b2e" class="q" style="animation-delay:0.29s"/>
    <rect x="82" y="66" width="18" height="18" rx="4" fill="#27bf40" class="q" style="animation-delay:0.10s"/>
    <rect x="82" y="92" width="18" height="18" rx="4" fill="#27bf40" class="q" style="animation-delay:0.14s"/>
    <rect x="82" y="118" width="18" height="18" rx="4" fill="#27bf40" class="q" style="animation-delay:0.18s"/>
    <rect x="82" y="144" width="18" height="18" rx="4" fill="#27bf40" class="q" style="animation-delay:0.22s"/>
    <rect x="82" y="170" width="18" height="18" rx="4" fill="#1c6b2e" class="q" style="animation-delay:0.26s"/>
    <rect x="82" y="196" width="18" height="18" rx="4" fill="#1c6b2e" class="q" style="animation-delay:0.30s"/>
    <rect x="82" y="222" width="18" height="18" rx="4" fill="#1c6b2e" class="q" style="animation-delay:0.34s"/>
    <rect x="108" y="66" width="18" height="18" rx="4" fill="#27bf40" class="q" style="animation-delay:0.15s"/>
    <rect x="108" y="92" width="18" height="18" rx="4" fill="#39ff14" class="q" style="animation-delay:0.19s"/>
    <rect x="108" y="118" width="18" height="18" rx="4" fill="#27bf40" class="q" style="animation-delay:0.23s"/>
    <rect x="108" y="144" width="18" height="18" rx="4" fill="#27bf40" class="q" style="animation-delay:0.27s"/>
    <rect x="108" y="170" width="18" height="18" rx="4" fill="#1c6b2e" class="q" style="animation-delay:0.31s"/>
    <rect x="108" y="196" width="18" height="18" rx="4" fill="#1c6b2e" class="q" style="animation-delay:0.35s"/>
    <rect x="108" y="222" width="18" height="18" rx="4" fill="#27bf40" class="q" style="animation-delay:0.39s"/>
    <rect x="134" y="66" width="18" height="18" rx="4" fill="#39ff14" class="q" style="animation-delay:0.20s"/>
    <rect x="134" y="92" width="18" height="18" rx="4" fill="#39ff14" class="q" style="animation-delay:0.24s"/>
    <rect x="134" y="118" width="18" height="18" rx="4" fill="#27bf40" class="q" style="animation-delay:0.28s"/>
    <rect x="134" y="144" width="18" height="18" rx="4" fill="#27bf40" class="q" style="animation-delay:0.32s"/>
    <rect x="134" y="170" width="18" height="18" rx="4" fill="#1c6b2e" class="q" style="animation-delay:0.36s"/>
    <rect x="134" y="196" width="18" height="18" rx="4" fill="#27bf40" class="q" style="animation-delay:0.40s"/>
    <rect x="134" y="222" width="18" height="18" rx="4" fill="#27bf40" class="q" style="animation-delay:0.44s"/>
    <rect x="160" y="66" width="18" height="18" rx="4" fill="#27bf40" class="q" style="animation-delay:0.25s"/>
    <rect x="160" y="92" width="18" height="18" rx="4" fill="#39ff14" class="q" style="animation-delay:0.29s"/>
    <rect x="160" y="118" width="18" height="18" rx="4" fill="#27bf40" class="q" style="animation-delay:0.33s"/>
    <rect x="160" y="144" width="18" height="18" rx="4" fill="#1c6b2e" class="q" style="animation-delay:0.37s"/>
    <rect x="160" y="170" width="18" height="18" rx="4" fill="#1c6b2e" class="q" style="animation-delay:0.41s"/>
    <rect x="160" y="196" width="18" height="18" rx="4" fill="#1c6b2e" class="q" style="animation-delay:0.45s"/>
    <rect x="160" y="222" width="18" height="18" rx="4" fill="#27bf40" class="q" style="animation-delay:0.49s"/>
    <rect x="186" y="66" width="18" height="18" rx="4" fill="#27bf40" class="q" style="animation-delay:0.30s"/>
    <rect x="186" y="92" width="18" height="18" rx="4" fill="#27bf40" class="q" style="animation-delay:0.34s"/>
    <rect x="186" y="118" width="18" height="18" rx="4" fill="#27bf40" class="q" style="animation-delay:0.38s"/>
    <rect x="186" y="144" width="18" height="18" rx="4" fill="#1c6b2e" class="q" style="animation-delay:0.42s"/>
    <rect x="186" y="170" width="18" height="18" rx="4" fill="#1c6b2e" class="q" style="animation-delay:0.46s"/>
    <rect x="186" y="196" width="18" height="18" rx="4" fill="#1c6b2e" class="q" style="animation-delay:0.50s"/>
    <rect x="186" y="222" width="18" height="18" rx="4" fill="#27bf40" class="q" style="animation-delay:0.54s"/>
    <rect x="212" y="66" width="18" height="18" rx="4" fill="#27bf40" class="q" style="animation-delay:0.35s"/>
    <rect x="212" y="92" width="18" height="18" rx="4" fill="#27bf40" class="q" style="animation-delay:0.39s"/>
    <rect x="212" y="118" width="18" height="18" rx="4" fill="#1c6b2e" class="q" style="animation-delay:0.43s"/>
    <rect x="212" y="144" width="18" height="18" rx="4" fill="#1c6b2e" class="q" style="animation-delay:0.47s"/>
    <rect x="212" y="170" width="18" height="18" rx="4" fill="#1c6b2e" class="q" style="animation-delay:0.51s"/>
    <rect x="212" y="196" width="18" height="18" rx="4" fill="#1c6b2e" class="q" style="animation-delay:0.55s"/>
    <rect x="212" y="222" width="18" height="18" rx="4" fill="#27bf40" class="q" style="animation-delay:0.59s"/>
    <rect x="238" y="66" width="18" height="18" rx="4" fill="#27bf40" class="q" style="animation-delay:0.40s"/>
    <rect x="238" y="92" width="18" height="18" rx="4" fill="#1c6b2e" class="q" style="animation-delay:0.44s"/>
    <rect x="238" y="118" width="18" height="18" rx="4" fill="#1c6b2e" class="q" style="animation-delay:0.48s"/>
    <rect x="238" y="144" width="18" height="18" rx="4" fill="#1c6b2e" class="q" style="animation-delay:0.52s"/>
    <rect x="238" y="170" width="18" height="18" rx="4" fill="#1c6b2e" class="q" style="animation-delay:0.56s"/>
    <rect x="238" y="196" width="18" height="18" rx="4" fill="#1c6b2e" class="q" style="animation-delay:0.60s"/>
    <rect x="238" y="222" width="18" height="18" rx="4" fill="#27bf40" class="q" style="animation-delay:0.64s"/>
    <rect x="264" y="66" width="18" height="18" rx="4" fill="#27bf40" class="q" style="animation-delay:0.45s"/>
    <rect x="264" y="92" width="18" height="18" rx="4" fill="#1c6b2e" class="q" style="animation-delay:0.49s"/>
    <rect x="264" y="118" width="18" height="18" rx="4" fill="#1c6b2e" class="q" style="animation-delay:0.53s"/>
    <rect x="264" y="144" width="18" height="18" rx="4" fill="#12351f" class="q" style="animation-delay:0.57s"/>
    <rect x="264" y="170" width="18" height="18" rx="4" fill="#1c6b2e" class="q" style="animation-delay:0.61s"/>
    <rect x="264" y="196" width="18" height="18" rx="4" fill="#1c6b2e" class="q" style="animation-delay:0.65s"/>
    <rect x="264" y="222" width="18" height="18" rx="4" fill="#27bf40" class="q" style="animation-delay:0.69s"/>
    <rect x="290" y="66" width="18" height="18" rx="4" fill="#27bf40" class="q" style="animation-delay:0.50s"/>
    <rect x="290" y="92" width="18" height="18" rx="4" fill="#1c6b2e" class="q" style="animation-delay:0.54s"/>
    <rect x="290" y="118" width="18" height="18" rx="4" fill="#1c6b2e" class="q" style="animation-delay:0.58s"/>
    <rect x="290" y="144" width="18" height="18" rx="4" fill="#12351f" class="q" style="animation-delay:0.62s"/>
    <rect x="290" y="170" width="18" height="18" rx="4" fill="#1c6b2e" class="q" style="animation-delay:0.66s"/>
    <rect x="290" y="196" width="18" height="18" rx="4" fill="#1c6b2e" class="q" style="animation-delay:0.70s"/>
    <rect x="290" y="222" width="18" height="18" rx="4" fill="#27bf40" class="q" style="animation-delay:0.74s"/>
    <rect x="316" y="66" width="18" height="18" rx="4" fill="#27bf40" class="q" style="animation-delay:0.55s"/>
    <rect x="316" y="92" width="18" height="18" rx="4" fill="#1c6b2e" class="q" style="animation-delay:0.59s"/>
    <rect x="316" y="118" width="18" height="18" rx="4" fill="#1c6b2e" class="q" style="animation-delay:0.63s"/>
    <rect x="316" y="144" width="18" height="18" rx="4" fill="#1c6b2e" class="q" style="animation-delay:0.67s"/>
    <rect x="316" y="170" width="18" height="18" rx="4" fill="#1c6b2e" class="q" style="animation-delay:0.71s"/>
    <rect x="316" y="196" width="18" height="18" rx="4" fill="#27bf40" class="q" style="animation-delay:0.75s"/>
    <rect x="316" y="222" width="18" height="18" rx="4" fill="#27bf40" class="q" style="animation-delay:0.79s"/>
    <rect x="342" y="66" width="18" height="18" rx="4" fill="#27bf40" class="q" style="animation-delay:0.60s"/>
    <rect x="342" y="92" width="18" height="18" rx="4" fill="#1c6b2e" class="q" style="animation-delay:0.64s"/>
    <rect x="342" y="118" width="18" height="18" rx="4" fill="#1c6b2e" class="q" style="animation-delay:0.68s"/>
    <rect x="342" y="144" width="18" height="18" rx="4" fill="#1c6b2e" class="q" style="animation-delay:0.72s"/>
    <rect x="342" y="170" width="18" height="18" rx="4" fill="#1c6b2e" class="q" style="animation-delay:0.76s"/>
    <rect x="342" y="196" width="18" height="18" rx="4" fill="#27bf40" class="q" style="animation-delay:0.80s"/>
    <rect x="342" y="222" width="18" height="18" rx="4" fill="#27bf40" class="q" style="animation-delay:0.84s"/>
    <rect x="368" y="66" width="18" height="18" rx="4" fill="#27bf40" class="q" style="animation-delay:0.65s"/>
    <rect x="368" y="92" width="18" height="18" rx="4" fill="#1c6b2e" class="q" style="animation-delay:0.69s"/>
    <rect x="368" y="118" width="18" height="18" rx="4" fill="#1c6b2e" class="q" style="animation-delay:0.73s"/>
    <rect x="368" y="144" width="18" height="18" rx="4" fill="#1c6b2e" class="q" style="animation-delay:0.77s"/>
    <rect x="368" y="170" width="18" height="18" rx="4" fill="#27bf40" class="q" style="animation-delay:0.81s"/>
    <rect x="368" y="196" width="18" height="18" rx="4" fill="#27bf40" class="q" style="animation-delay:0.85s"/>
    <rect x="368" y="222" width="18" height="18" rx="4" fill="#27bf40" class="q" style="animation-delay:0.89s"/>
    <rect x="394" y="66" width="18" height="18" rx="4" fill="#27bf40" class="q" style="animation-delay:0.70s"/>
    <rect x="394" y="92" width="18" height="18" rx="4" fill="#1c6b2e" class="q" style="animation-delay:0.74s"/>
    <rect x="394" y="118" width="18" height="18" rx="4" fill="#1c6b2e" class="q" style="animation-delay:0.78s"/>
    <rect x="394" y="144" width="18" height="18" rx="4" fill="#27bf40" class="q" style="animation-delay:0.82s"/>
    <rect x="394" y="170" width="18" height="18" rx="4" fill="#27bf40" class="q" style="animation-delay:0.86s"/>
    <rect x="394" y="196" width="18" height="18" rx="4" fill="#39ff14" class="q" style="animation-delay:0.90s"/>
    <rect x="394" y="222" width="18" height="18" rx="4" fill="#27bf40" class="q" style="animation-delay:0.94s"/>
    <rect x="420" y="66" width="18" height="18" rx="4" fill="#27bf40" class="q" style="animation-delay:0.75s"/>
    <rect x="420" y="92" width="18" height="18" rx="4" fill="#1c6b2e" class="q" style="animation-delay:0.79s"/>
    <rect x="420" y="118" width="18" height="18" rx="4" fill="#1c6b2e" class="q" style="animation-delay:0.83s"/>
    <rect x="420" y="144" width="18" height="18" rx="4" fill="#27bf40" class="q" style="animation-delay:0.87s"/>
    <rect x="420" y="170" width="18" height="18" rx="4" fill="#27bf40" class="q" style="animation-delay:0.91s"/>
    <rect x="420" y="196" width="18" height="18" rx="4" fill="#39ff14" class="q" style="animation-delay:0.95s"/>
    <rect x="420" y="222" width="18" height="18" rx="4" fill="#27bf40" class="q" style="animation-delay:0.99s"/>
    <rect x="446" y="66" width="18" height="18" rx="4" fill="#27bf40" class="q" style="animation-delay:0.80s"/>
    <rect x="446" y="92" width="18" height="18" rx="4" fill="#1c6b2e" class="q" style="animation-delay:0.84s"/>
    <rect x="446" y="118" width="18" height="18" rx="4" fill="#1c6b2e" class="q" style="animation-delay:0.88s"/>
    <rect x="446" y="144" width="18" height="18" rx="4" fill="#27bf40" class="q" style="animation-delay:0.92s"/>
    <rect x="446" y="170" width="18" height="18" rx="4" fill="#27bf40" class="q" style="animation-delay:0.96s"/>
    <rect x="446" y="196" width="18" height="18" rx="4" fill="#39ff14" class="q" style="animation-delay:1.00s"/>
    <rect x="446" y="222" width="18" height="18" rx="4" fill="#27bf40" class="q" style="animation-delay:1.04s"/>
    <rect x="472" y="66" width="18" height="18" rx="4" fill="#1c6b2e" class="q" style="animation-delay:0.85s"/>
    <rect x="472" y="92" width="18" height="18" rx="4" fill="#1c6b2e" class="q" style="animation-delay:0.89s"/>
    <rect x="472" y="118" width="18" height="18" rx="4" fill="#1c6b2e" class="q" style="animation-delay:0.93s"/>
    <rect x="472" y="144" width="18" height="18" rx="4" fill="#27bf40" class="q" style="animation-delay:0.97s"/>
    <rect x="472" y="170" width="18" height="18" rx="4" fill="#27bf40" class="q" style="animation-delay:1.01s"/>
    <rect x="472" y="196" width="18" height="18" rx="4" fill="#27bf40" class="q" style="animation-delay:1.05s"/>
    <rect x="472" y="222" width="18" height="18" rx="4" fill="#27bf40" class="q" style="animation-delay:1.09s"/>
    <rect x="498" y="66" width="18" height="18" rx="4" fill="#1c6b2e" class="q" style="animation-delay:0.90s"/>
    <rect x="498" y="92" width="18" height="18" rx="4" fill="#1c6b2e" class="q" style="animation-delay:0.94s"/>
    <rect x="498" y="118" width="18" height="18" rx="4" fill="#1c6b2e" class="q" style="animation-delay:0.98s"/>
    <rect x="498" y="144" width="18" height="18" rx="4" fill="#27bf40" class="q" style="animation-delay:1.02s"/>
    <rect x="498" y="170" width="18" height="18" rx="4" fill="#27bf40" class="q" style="animation-delay:1.06s"/>
    <rect x="498" y="196" width="18" height="18" rx="4" fill="#27bf40" class="q" style="animation-delay:1.10s"/>
    <rect x="498" y="222" width="18" height="18" rx="4" fill="#1c6b2e" class="q" style="animation-delay:1.14s"/>
    <rect x="524" y="66" width="18" height="18" rx="4" fill="#12351f" class="q" style="animation-delay:0.95s"/>
    <rect x="524" y="92" width="18" height="18" rx="4" fill="#12351f" class="q" style="animation-delay:0.99s"/>
    <rect x="524" y="118" width="18" height="18" rx="4" fill="#1c6b2e" class="q" style="animation-delay:1.03s"/>
    <rect x="524" y="144" width="18" height="18" rx="4" fill="#1c6b2e" class="q" style="animation-delay:1.07s"/>
    <rect x="524" y="170" width="18" height="18" rx="4" fill="#27bf40" class="q" style="animation-delay:1.11s"/>
    <rect x="524" y="196" width="18" height="18" rx="4" fill="#1c6b2e" class="q" style="animation-delay:1.15s"/>
    <rect x="524" y="222" width="18" height="18" rx="4" fill="#1c6b2e" class="q" style="animation-delay:1.19s"/>
    <rect x="550" y="66" width="18" height="18" rx="4" fill="#12351f" class="q" style="animation-delay:1.00s"/>
    <rect x="550" y="92" width="18" height="18" rx="4" fill="#12351f" class="q" style="animation-delay:1.04s"/>
    <rect x="550" y="118" width="18" height="18" rx="4" fill="#12351f" class="q" style="animation-delay:1.08s"/>
    <rect x="550" y="144" width="18" height="18" rx="4" fill="#1c6b2e" class="q" style="animation-delay:1.12s"/>
    <rect x="550" y="170" width="18" height="18" rx="4" fill="#1c6b2e" class="q" style="animation-delay:1.16s"/>
    <rect x="550" y="196" width="18" height="18" rx="4" fill="#1c6b2e" class="q" style="animation-delay:1.20s"/>
    <rect x="550" y="222" width="18" height="18" rx="4" fill="#12351f" class="q" style="animation-delay:1.24s"/>
    <rect x="576" y="66" width="18" height="18" rx="4" fill="#141433" class="q" style="animation-delay:1.05s"/>
    <rect x="576" y="92" width="18" height="18" rx="4" fill="#12351f" class="q" style="animation-delay:1.09s"/>
    <rect x="576" y="118" width="18" height="18" rx="4" fill="#12351f" class="q" style="animation-delay:1.13s"/>
    <rect x="576" y="144" width="18" height="18" rx="4" fill="#1c6b2e" class="q" style="animation-delay:1.17s"/>
    <rect x="576" y="170" width="18" height="18" rx="4" fill="#1c6b2e" class="q" style="animation-delay:1.21s"/>
    <rect x="576" y="196" width="18" height="18" rx="4" fill="#12351f" class="q" style="animation-delay:1.25s"/>
    <rect x="576" y="222" width="18" height="18" rx="4" fill="#12351f" class="q" style="animation-delay:1.29s"/>
    <rect x="602" y="66" width="18" height="18" rx="4" fill="#141433" class="q" style="animation-delay:1.10s"/>
    <rect x="602" y="92" width="18" height="18" rx="4" fill="#12351f" class="q" style="animation-delay:1.14s"/>
    <rect x="602" y="118" width="18" height="18" rx="4" fill="#12351f" class="q" style="animation-delay:1.18s"/>
    <rect x="602" y="144" width="18" height="18" rx="4" fill="#1c6b2e" class="q" style="animation-delay:1.22s"/>
    <rect x="602" y="170" width="18" height="18" rx="4" fill="#1c6b2e" class="q" style="animation-delay:1.26s"/>
    <rect x="602" y="196" width="18" height="18" rx="4" fill="#12351f" class="q" style="animation-delay:1.30s"/>
    <rect x="602" y="222" width="18" height="18" rx="4" fill="#141433" class="q" style="animation-delay:1.34s"/>
    <rect x="628" y="66" width="18" height="18" rx="4" fill="#141433" class="q" style="animation-delay:1.15s"/>
    <rect x="628" y="92" width="18" height="18" rx="4" fill="#12351f" class="q" style="animation-delay:1.19s"/>
    <rect x="628" y="118" width="18" height="18" rx="4" fill="#12351f" class="q" style="animation-delay:1.23s"/>
    <rect x="628" y="144" width="18" height="18" rx="4" fill="#1c6b2e" class="q" style="animation-delay:1.27s"/>
    <rect x="628" y="170" width="18" height="18" rx="4" fill="#12351f" class="q" style="animation-delay:1.31s"/>
    <rect x="628" y="196" width="18" height="18" rx="4" fill="#12351f" class="q" style="animation-delay:1.35s"/>
    <rect x="628" y="222" width="18" height="18" rx="4" fill="#141433" class="q" style="animation-delay:1.39s"/>
    <rect x="654" y="66" width="18" height="18" rx="4" fill="#12351f" class="q" style="animation-delay:1.20s"/>
    <rect x="654" y="92" width="18" height="18" rx="4" fill="#12351f" class="q" style="animation-delay:1.24s"/>
    <rect x="654" y="118" width="18" height="18" rx="4" fill="#1c6b2e" class="q" style="animation-delay:1.28s"/>
    <rect x="654" y="144" width="18" height="18" rx="4" fill="#1c6b2e" class="q" style="animation-delay:1.32s"/>
    <rect x="654" y="170" width="18" height="18" rx="4" fill="#12351f" class="q" style="animation-delay:1.36s"/>
    <rect x="654" y="196" width="18" height="18" rx="4" fill="#12351f" class="q" style="animation-delay:1.40s"/>
    <rect x="654" y="222" width="18" height="18" rx="4" fill="#141433" class="q" style="animation-delay:1.44s"/>
    <rect x="680" y="66" width="18" height="18" rx="4" fill="#12351f" class="q" style="animation-delay:1.25s"/>
    <rect x="680" y="92" width="18" height="18" rx="4" fill="#12351f" class="q" style="animation-delay:1.29s"/>
    <rect x="680" y="118" width="18" height="18" rx="4" fill="#1c6b2e" class="q" style="animation-delay:1.33s"/>
    <rect x="680" y="144" width="18" height="18" rx="4" fill="#1c6b2e" class="q" style="animation-delay:1.37s"/>
    <rect x="680" y="170" width="18" height="18" rx="4" fill="#1c6b2e" class="q" style="animation-delay:1.41s"/>
    <rect x="680" y="196" width="18" height="18" rx="4" fill="#12351f" class="q" style="animation-delay:1.45s"/>
    <rect x="680" y="222" width="18" height="18" rx="4" fill="#12351f" class="q" style="animation-delay:1.49s"/>
    <rect x="706" y="66" width="18" height="18" rx="4" fill="#12351f" class="q" style="animation-delay:1.30s"/>
    <rect x="706" y="92" width="18" height="18" rx="4" fill="#1c6b2e" class="q" style="animation-delay:1.34s"/>
    <rect x="706" y="118" width="18" height="18" rx="4" fill="#1c6b2e" class="q" style="animation-delay:1.38s"/>
    <rect x="706" y="144" width="18" height="18" rx="4" fill="#1c6b2e" class="q" style="animation-delay:1.42s"/>
    <rect x="706" y="170" width="18" height="18" rx="4" fill="#1c6b2e" class="q" style="animation-delay:1.46s"/>
    <rect x="706" y="196" width="18" height="18" rx="4" fill="#12351f" class="q" style="animation-delay:1.50s"/>
    <rect x="706" y="222" width="18" height="18" rx="4" fill="#12351f" class="q" style="animation-delay:1.54s"/>
    <rect x="732" y="66" width="18" height="18" rx="4" fill="#1c6b2e" class="q" style="animation-delay:1.35s"/>
    <rect x="732" y="92" width="18" height="18" rx="4" fill="#1c6b2e" class="q" style="animation-delay:1.39s"/>
    <rect x="732" y="118" width="18" height="18" rx="4" fill="#27bf40" class="q" style="animation-delay:1.43s"/>
    <rect x="732" y="144" width="18" height="18" rx="4" fill="#1c6b2e" class="q" style="animation-delay:1.47s"/>
    <rect x="732" y="170" width="18" height="18" rx="4" fill="#1c6b2e" class="q" style="animation-delay:1.51s"/>
    <rect x="732" y="196" width="18" height="18" rx="4" fill="#12351f" class="q" style="animation-delay:1.55s"/>
    <rect x="732" y="222" width="18" height="18" rx="4" fill="#12351f" class="q" style="animation-delay:1.59s"/>
    <rect x="758" y="66" width="18" height="18" rx="4" fill="#1c6b2e" class="q" style="animation-delay:1.40s"/>
    <rect x="758" y="92" width="18" height="18" rx="4" fill="#1c6b2e" class="q" style="animation-delay:1.44s"/>
    <rect x="758" y="118" width="18" height="18" rx="4" fill="#27bf40" class="q" style="animation-delay:1.48s"/>
    <rect x="758" y="144" width="18" height="18" rx="4" fill="#1c6b2e" class="q" style="animation-delay:1.52s"/>
    <rect x="758" y="170" width="18" height="18" rx="4" fill="#1c6b2e" class="q" style="animation-delay:1.56s"/>
    <rect x="758" y="196" width="18" height="18" rx="4" fill="#12351f" class="q" style="animation-delay:1.60s"/>
    <rect x="758" y="222" width="18" height="18" rx="4" fill="#12351f" class="q" style="animation-delay:1.64s"/>
    <rect x="784" y="66" width="18" height="18" rx="4" fill="#1c6b2e" class="q" style="animation-delay:1.45s"/>
    <rect x="784" y="92" width="18" height="18" rx="4" fill="#27bf40" class="q" style="animation-delay:1.49s"/>
    <rect x="784" y="118" width="18" height="18" rx="4" fill="#27bf40" class="q" style="animation-delay:1.53s"/>
    <rect x="784" y="144" width="18" height="18" rx="4" fill="#1c6b2e" class="q" style="animation-delay:1.57s"/>
    <rect x="784" y="170" width="18" height="18" rx="4" fill="#1c6b2e" class="q" style="animation-delay:1.61s"/>
    <rect x="784" y="196" width="18" height="18" rx="4" fill="#12351f" class="q" style="animation-delay:1.65s"/>
    <rect x="784" y="222" width="18" height="18" rx="4" fill="#1c6b2e" class="q" style="animation-delay:1.69s"/>
    <rect x="7" y="7" width="818" height="258" rx="15" fill="none" stroke="url(#aedge)" stroke-width="1.3" opacity="0.8"/>
  </g>
</svg>
